<?xml version="1.0" encoding="utf-8"?>
<!-- Generator: Adobe Illustrator 17.0.0, SVG Export Plug-In . SVG Version: 6.00 Build 0)  -->
<!DOCTYPE svg PUBLIC "-//W3C//DTD SVG 1.1//EN" "http://www.w3.org/Graphics/SVG/1.1/DTD/svg11.dtd">
<svg version="1.1" xmlns="http://www.w3.org/2000/svg" xmlns:xlink="http://www.w3.org/1999/xlink" x="0px" y="0px" width="449px"
	 height="449px" viewBox="0 0 449 449" enable-background="new 0 0 449 449" xml:space="preserve">
<g id="Pizza">
</g>
<g id="Cat">
	<g>
		<path fill="#FFFFFF" d="M225,14c28.491,0,56.122,5.577,82.126,16.576C332.25,41.202,354.817,56.418,374.2,75.8
			c19.382,19.382,34.598,41.949,45.225,67.073C430.423,168.878,436,196.509,436,225s-5.577,56.122-16.576,82.126
			c-10.627,25.124-25.842,47.691-45.225,67.073c-19.382,19.382-41.949,34.598-67.073,45.225C281.122,430.423,253.491,436,225,436
			s-56.122-5.577-82.126-16.576C117.75,408.798,95.183,393.582,75.8,374.2c-19.382-19.382-34.598-41.949-45.225-67.073
			C19.577,281.122,14,253.491,14,225s5.577-56.122,16.576-82.126C41.202,117.75,56.418,95.183,75.8,75.8
			c19.382-19.382,41.949-34.598,67.073-45.225C168.878,19.577,196.509,14,225,14 M225,0C100.736,0,0,100.736,0,225
			s100.736,225,225,225s225-100.736,225-225S349.264,0,225,0L225,0z"/>
	</g>
	<g>
		<defs>
			<circle id="SVGID_1_" cx="225" cy="225" r="225"/>
		</defs>
		<clipPath id="SVGID_2_">
			<use xlink:href="#SVGID_1_"  overflow="visible"/>
		</clipPath>
		<path clip-path="url(#SVGID_2_)" fill="#FFFFFF" d="M326.349,146.205c0-18.898,16.648-17.801,13.409-33.47
			c-2.237-10.823-3.988-19.503-5.293-32.591c-0.926-9.287-1.221-19.184-10.867-18.786c-11.333,0.468-15.633,20.417-33.25,21.847
			c-17.581,1.427-32.571-14.966-39.375-12.625c-6.747,2.322-4.625,20.625-0.625,33.625c6.287,20.432,20,47-5,51s-68,8-99,49
			s-29.856,89.117-42,104c-40.758,49.951-82.525,29.442-82.525,71c0,18.606,31.525,32,36.525,26s-42.485-23.981,10.646-45.102
			C114.387,342.058,118.439,338,132.349,351h113c0-16-1.147-19.148-27.75-19.148c4.25-12.75,21.525-43.545,31.125-43.545
			c8.493,0,18.625,0.493,18.625,19.872c0,22,37.023,57.484,46,43.013c13.379-21.566-23-14.983-23-66.994
			c0-71.153,41.525-61.021,41.525-100.997C331.874,163.201,326.349,160.504,326.349,146.205z"/>
	</g>
</g>
</svg>
