<?xml version="1.0" encoding="utf-8"?>
<!-- Generator: Adobe Illustrator 17.0.0, SVG Export Plug-In . SVG Version: 6.00 Build 0)  -->
<!DOCTYPE svg PUBLIC "-//W3C//DTD SVG 1.1//EN" "http://www.w3.org/Graphics/SVG/1.1/DTD/svg11.dtd">
<svg version="1.1" xmlns="http://www.w3.org/2000/svg" xmlns:xlink="http://www.w3.org/1999/xlink" x="0px" y="0px" width="450px"
	 height="450px" viewBox="0 0 450 450" enable-background="new 0 0 450 450" xml:space="preserve">
<g id="Pizza">
</g>
<g id="Cat">
</g>
<g id="Design_1">
</g>
<g id="Design_2">
	<g>
		<path fill="#FFFFFF" d="M225,14c28.491,0,56.122,5.577,82.126,16.576C332.25,41.202,354.817,56.418,374.2,75.8
			c19.382,19.382,34.598,41.949,45.225,67.073C430.423,168.878,436,196.509,436,225c0,28.491-5.577,56.122-16.576,82.126
			c-10.627,25.124-25.842,47.691-45.225,67.073c-19.382,19.382-41.949,34.598-67.073,45.225C281.122,430.423,253.491,436,225,436
			s-56.122-5.577-82.126-16.576C117.75,408.798,95.183,393.582,75.8,374.2c-19.382-19.382-34.598-41.949-45.225-67.073
			C19.577,281.122,14,253.491,14,225c0-28.491,5.577-56.122,16.576-82.126C41.202,117.75,56.418,95.183,75.8,75.8
			c19.382-19.382,41.949-34.598,67.073-45.225C168.878,19.577,196.509,14,225,14 M225,0C100.736,0,0,100.736,0,225
			s100.736,225,225,225s225-100.736,225-225S349.264,0,225,0L225,0z"/>
	</g>
	<g>
		<path fill="#FFFFFF" d="M364,118v174H126V118H364 M374,108H116v194h258V108L374,108z"/>
	</g>
	<g>
		<path fill="#FFFFFF" d="M187,154v170H81V154H187 M197,144H71v190h126V144L197,144z"/>
	</g>
	<g>
		<path fill="#FFFFFF" d="M312,212v112h-52V212H312 M322,202h-72v132h72V202L322,202z"/>
	</g>
</g>
</svg>
