<?xml version="1.0" encoding="utf-8"?>
<!-- Generator: Adobe Illustrator 17.0.0, SVG Export Plug-In . SVG Version: 6.00 Build 0)  -->
<!DOCTYPE svg PUBLIC "-//W3C//DTD SVG 1.1//EN" "http://www.w3.org/Graphics/SVG/1.1/DTD/svg11.dtd">
<svg version="1.1" id="Layer_1" xmlns="http://www.w3.org/2000/svg" xmlns:xlink="http://www.w3.org/1999/xlink" x="0px" y="0px"
	 width="450px" height="450px" viewBox="0 0 450 450" enable-background="new 0 0 450 450" xml:space="preserve">
<g>
	<path fill="#FFFFFF" d="M225,14c28.491,0,56.122,5.577,82.126,16.576C332.25,41.202,354.817,56.418,374.2,75.8
		c19.382,19.382,34.598,41.949,45.225,67.073C430.423,168.878,436,196.509,436,225s-5.577,56.122-16.576,82.126
		c-10.627,25.124-25.842,47.691-45.225,67.073c-19.382,19.382-41.949,34.598-67.073,45.225C281.122,430.423,253.491,436,225,436
		s-56.122-5.577-82.126-16.576C117.75,408.798,95.183,393.582,75.8,374.2c-19.382-19.382-34.598-41.949-45.225-67.073
		C19.577,281.122,14,253.491,14,225s5.577-56.122,16.576-82.126C41.202,117.75,56.418,95.183,75.8,75.8s41.949-34.598,67.073-45.225
		C168.878,19.577,196.509,14,225,14 M225,0C100.736,0,0,100.736,0,225s100.736,225,225,225s225-100.736,225-225S349.264,0,225,0
		L225,0z"/>
</g>
<g>
	<line fill="none" stroke="#FFFFFF" stroke-width="7" stroke-miterlimit="10" x1="223.5" y1="7" x2="223.5" y2="444"/>
	<line fill="none" stroke="#FFFFFF" stroke-width="7" stroke-miterlimit="10" x1="7" y1="226.5" x2="442" y2="226.5"/>
	<line fill="none" stroke="#FFFFFF" stroke-width="7" stroke-miterlimit="10" x1="379" y1="379" x2="71" y2="71"/>
	<line fill="none" stroke="#FFFFFF" stroke-width="7" stroke-miterlimit="10" x1="71" y1="379" x2="379" y2="71"/>
</g>
<g>
	<path fill="#FFFFFF" d="M74.82,201c14.237,0,25.82,11.583,25.82,25.82c0,14.237-11.583,25.82-25.82,25.82S49,241.057,49,226.82
		C49,212.583,60.583,201,74.82,201 M74.82,194C56.694,194,42,208.694,42,226.82s14.694,32.82,32.82,32.82s32.82-14.694,32.82-32.82
		S92.946,194,74.82,194L74.82,194z"/>
</g>
<g>
	<path fill="#FFFFFF" d="M163.82,156c14.237,0,25.82,11.583,25.82,25.82c0,14.237-11.583,25.82-25.82,25.82
		c-14.237,0-25.82-11.583-25.82-25.82C138,167.583,149.583,156,163.82,156 M163.82,149c-18.126,0-32.82,14.694-32.82,32.82
		s14.694,32.82,32.82,32.82s32.82-14.694,32.82-32.82S181.946,149,163.82,149L163.82,149z"/>
</g>
<g>
	<path fill="#FFFFFF" d="M163.82,55c14.237,0,25.82,11.583,25.82,25.82s-11.583,25.82-25.82,25.82
		c-14.237,0-25.82-11.583-25.82-25.82S149.583,55,163.82,55 M163.82,48C145.694,48,131,62.694,131,80.82s14.694,32.82,32.82,32.82
		s32.82-14.694,32.82-32.82S181.946,48,163.82,48L163.82,48z"/>
</g>
<g>
	<path fill="#FFFFFF" d="M359.82,253c14.237,0,25.82,11.583,25.82,25.82c0,14.237-11.583,25.82-25.82,25.82S334,293.057,334,278.82
		C334,264.583,345.583,253,359.82,253 M359.82,246c-18.126,0-32.82,14.694-32.82,32.82s14.694,32.82,32.82,32.82
		c18.126,0,32.82-14.694,32.82-32.82S377.946,246,359.82,246L359.82,246z"/>
</g>
<g>
	<path fill="#FFFFFF" d="M269.82,156c14.237,0,25.82,11.583,25.82,25.82c0,14.237-11.583,25.82-25.82,25.82
		c-14.237,0-25.82-11.583-25.82-25.82C244,167.583,255.583,156,269.82,156 M269.82,149c-18.126,0-32.82,14.694-32.82,32.82
		s14.694,32.82,32.82,32.82s32.82-14.694,32.82-32.82S287.946,149,269.82,149L269.82,149z"/>
</g>
<g>
	<path fill="#FFFFFF" d="M212.82,359c14.237,0,25.82,11.583,25.82,25.82s-11.583,25.82-25.82,25.82
		c-14.237,0-25.82-11.583-25.82-25.82S198.583,359,212.82,359 M212.82,352c-18.126,0-32.82,14.694-32.82,32.82
		c0,18.126,14.694,32.82,32.82,32.82s32.82-14.694,32.82-32.82C245.64,366.694,230.946,352,212.82,352L212.82,352z"/>
</g>
<g>
	<path fill="#FFFFFF" d="M163.82,276c14.237,0,25.82,11.583,25.82,25.82c0,14.237-11.583,25.82-25.82,25.82
		c-14.237,0-25.82-11.583-25.82-25.82C138,287.583,149.583,276,163.82,276 M163.82,269c-18.126,0-32.82,14.694-32.82,32.82
		s14.694,32.82,32.82,32.82s32.82-14.694,32.82-32.82S181.946,269,163.82,269L163.82,269z"/>
</g>
<g>
	<path fill="#FFFFFF" d="M269.82,271c14.237,0,25.82,11.583,25.82,25.82c0,14.237-11.583,25.82-25.82,25.82
		c-14.237,0-25.82-11.583-25.82-25.82C244,282.583,255.583,271,269.82,271 M269.82,264c-18.126,0-32.82,14.694-32.82,32.82
		s14.694,32.82,32.82,32.82s32.82-14.694,32.82-32.82S287.946,264,269.82,264L269.82,264z"/>
</g>
<g>
	<path fill="#FFFFFF" d="M372.82,140c14.237,0,25.82,11.583,25.82,25.82c0,14.237-11.583,25.82-25.82,25.82S347,180.057,347,165.82
		C347,151.583,358.583,140,372.82,140 M372.82,133c-18.126,0-32.82,14.694-32.82,32.82s14.694,32.82,32.82,32.82
		c18.126,0,32.82-14.694,32.82-32.82S390.946,133,372.82,133L372.82,133z"/>
</g>
<g>
	<path fill="#FFFFFF" d="M79.82,115c14.237,0,25.82,11.583,25.82,25.82c0,14.237-11.583,25.82-25.82,25.82S54,155.057,54,140.82
		C54,126.583,65.583,115,79.82,115 M79.82,108C61.694,108,47,122.694,47,140.82c0,18.126,14.694,32.82,32.82,32.82
		s32.82-14.694,32.82-32.82C112.64,122.694,97.946,108,79.82,108L79.82,108z"/>
</g>
<g>
	<path fill="#FFFFFF" d="M293.82,55c14.237,0,25.82,11.583,25.82,25.82s-11.583,25.82-25.82,25.82
		c-14.237,0-25.82-11.583-25.82-25.82S279.583,55,293.82,55 M293.82,48C275.694,48,261,62.694,261,80.82s14.694,32.82,32.82,32.82
		s32.82-14.694,32.82-32.82S311.946,48,293.82,48L293.82,48z"/>
</g>
</svg>
